<?xml version="1.0" standalone="no"?>
<!DOCTYPE svg PUBLIC "-//W3C//DTD SVG 20010904//EN"
 "http://www.w3.org/TR/2001/REC-SVG-20010904/DTD/svg10.dtd">
<svg version="1.0" xmlns="http://www.w3.org/2000/svg"
 width="1024.000000pt" height="1024.000000pt" viewBox="0 0 1024.000000 1024.000000"
 preserveAspectRatio="xMidYMid meet">
<metadata>
Created by potrace 1.16, written by Peter Selinger 2001-2019
</metadata>
<g transform="translate(0.000000,1024.000000) scale(0.100000,-0.100000)"
fill="#000000" stroke="none">
<path d="M6356 9082 c104 -96 330 -339 461 -496 731 -871 1115 -1781 1225
-2896 18 -183 18 -897 0 -1080 -128 -1300 -633 -2338 -1621 -3327 l-123 -123
434 0 434 0 196 198 c273 274 396 414 585 667 529 704 836 1440 952 2285 40
292 46 405 46 840 0 435 -6 548 -46 840 -110 800 -398 1517 -876 2183 -216
300 -430 546 -750 860 l-109 107 -435 0 -434 -1 61 -57z"/>
<path d="M1060 7025 l0 -435 475 0 475 0 0 435 0 435 -475 0 -475 0 0 -435z"/>
<path d="M3360 5205 l0 -335 1220 0 1220 0 0 335 0 335 -1220 0 -1220 0 0
-335z"/>
<path d="M1060 3365 l0 -435 475 0 475 0 0 435 0 435 -475 0 -475 0 0 -435z"/>
</g>
</svg>
