<svg height="512pt" viewBox="0 0 512 512" width="512pt" xmlns="http://www.w3.org/2000/svg"><path d="m437.019531 74.980469c-48.351562-48.351563-112.640625-74.980469-181.019531-74.980469s-132.667969 26.628906-181.019531 74.980469c-48.351563 48.351562-74.980469 112.640625-74.980469 181.019531s26.628906 132.667969 74.980469 181.019531c48.351562 48.351563 112.640625 74.980469 181.019531 74.980469s132.667969-26.628906 181.019531-74.980469c48.351563-48.351562 74.980469-112.640625 74.980469-181.019531s-26.628906-132.667969-74.980469-181.019531zm-283.820312 134.089843c0-14.308593 11.644531-25.949218 25.953125-25.949218s25.949218 11.640625 25.949218 25.949218c0 14.308594-11.640624 25.949219-25.949218 25.949219s-25.953125-11.640625-25.953125-25.949219zm192.007812 118.730469c-18.378906 31.773438-52.574219 51.507813-89.242187 51.507813-36.738282 0-70.96875-19.792969-89.328125-51.652344-4.136719-7.179688-1.671875-16.351562 5.507812-20.484375 7.175781-4.140625 16.347657-1.671875 20.484375 5.503906 13.019532 22.597657 37.289063 36.632813 63.335938 36.632813 25.996094 0 50.238281-13.996094 63.273437-36.527344 4.148438-7.171875 13.324219-9.621094 20.496094-5.472656 7.171875 4.144531 9.621094 13.324218 5.472656 20.492187zm-12.5-92.78125c-14.3125 0-25.953125-11.640625-25.953125-25.949219 0-14.308593 11.640625-25.949218 25.953125-25.949218 14.304688 0 25.945313 11.640625 25.945313 25.949218.003906 14.308594-11.640625 25.949219-25.945313 25.949219zm0 0"/></svg>